<?xml version="1.0" encoding="UTF-8"?>
<svg id="Layer_2" data-name="Layer 2" xmlns="http://www.w3.org/2000/svg" viewBox="0 0 2042.58 421.64">
  <defs>
    <style>
      .cls-1 {
        fill: #c1272d;
      }

      .cls-1, .cls-2 {
        stroke-width: 0px;
      }

      .cls-2 {
        fill: #fff;
      }
    </style>
  </defs>
  <g>
    <g>
      <path class="cls-1" d="M1405.14,188.05c.42-.41.91-.61,1.44-.61h59.03v-22.51h-72.49c-5.78,0-10.28,1.71-13.5,5.11-3.24,3.39-4.84,7.67-4.84,12.82v21.21c0,5.15,1.61,9.42,4.84,12.82,3.22,3.4,7.72,5.12,13.5,5.12h40.68c.52,0,1,.22,1.46.64.42.44.64.97.64,1.58v7.72c0,.69-.22,1.24-.64,1.63-.46.41-.93.61-1.46.61h-59.03v22.51h72.51c5.76,0,10.25-1.71,13.48-5.12,3.23-3.39,4.84-7.67,4.84-12.82v-21.21c0-5.23-1.61-9.55-4.84-12.96-3.23-3.4-7.72-5.1-13.48-5.1h-40.7c-.53,0-1.02-.2-1.44-.61-.44-.39-.66-.88-.66-1.49v-7.86c0-.61.22-1.1.66-1.49Z"/>
      <path class="cls-1" d="M1476.07,164.94v22.51h29.2v69.26h30.23v-69.26h29.2v-22.51h-88.63Z"/>
      <path class="cls-1" d="M1641.92,164.94v65.97c0,.97-.3,1.74-.91,2.37-.61.59-1.39.91-2.35.91h-29.32c-.98,0-1.74-.32-2.37-.91-.59-.63-.91-1.41-.91-2.37v-65.97h-30.88v73.83c0,5.67,1.47,10.06,4.45,13.21,2.96,3.15,7.57,4.73,13.87,4.73h60.99c6.28,0,10.89-1.57,13.89-4.73,2.96-3.15,4.42-7.54,4.42-13.21v-73.83h-30.88Z"/>
      <path class="cls-1" d="M1775.5,170.69c-3.62-3.84-9.08-5.76-16.29-5.76h-75.93v91.77h75.93c7.22,0,12.67-1.93,16.29-5.83,3.62-3.88,5.42-9.06,5.42-15.51v-49.1c0-6.52-1.8-11.72-5.42-15.57ZM1751.22,230.91c0,.97-.32,1.74-.98,2.37-.66.59-1.42.91-2.29.91h-34.96v-46.75h34.96c.86,0,1.63.32,2.29.91.66.63.98,1.41.98,2.37v40.18Z"/>
      <path class="cls-1" d="M1794,164.94v91.77h31.96v-91.77h-31.96Z"/>
      <path class="cls-1" d="M1935.9,170.69c-3.59-3.84-8.99-5.76-16.24-5.76h-58.87c-7.18,0-12.57,1.91-16.19,5.76-3.62,3.84-5.42,9.04-5.42,15.57v49.1c0,6.45,1.8,11.64,5.42,15.51,3.62,3.9,9.01,5.83,16.19,5.83h58.87c7.25,0,12.65-1.98,16.24-5.89,3.59-3.83,5.37-8.99,5.37-15.45v-49.1c0-6.52-1.78-11.72-5.37-15.57ZM1912.08,230.91c0,.97-.3,1.74-.93,2.37-.59.59-1.34.91-2.2.91h-37.33c-.95,0-1.74-.32-2.34-.91-.63-.63-.93-1.41-.93-2.37v-40.18c0-.97.3-1.74.93-2.37.59-.59,1.39-.91,2.34-.91h37.33c.86,0,1.61.32,2.2.91.63.63.93,1.41.93,2.37v40.18Z"/>
      <path class="cls-1" d="M1982.09,188.05c.46-.41.93-.61,1.46-.61h59.03v-22.51h-72.51c-5.76,0-10.25,1.71-13.48,5.11-3.22,3.39-4.84,7.67-4.84,12.82v21.21c0,5.15,1.63,9.42,4.84,12.82,3.24,3.4,7.72,5.12,13.48,5.12h40.72c.51,0,1,.22,1.42.64.46.44.66.97.66,1.58v7.72c0,.69-.2,1.24-.66,1.63-.42.41-.91.61-1.42.61h-59.04v22.51h72.52c5.76,0,10.25-1.71,13.47-5.12,3.23-3.39,4.84-7.67,4.84-12.82v-21.21c0-5.23-1.61-9.55-4.84-12.96-3.22-3.4-7.71-5.1-13.47-5.1h-40.72c-.52,0-1-.2-1.46-.61-.42-.39-.63-.88-.63-1.49v-7.86c0-.61.2-1.1.63-1.49Z"/>
    </g>
    <path class="cls-1" d="M1373.65,0h659.32c5.3,0,9.6,4.3,9.6,9.6v109.4h-668.92V0h0Z"/>
    <path class="cls-1" d="M1373.65,302.62h668.92v109.4c0,5.3-4.3,9.6-9.6,9.6h-659.32v-119.01h0Z"/>
  </g>
  <g>
    <path class="cls-2" d="M307.34,0l-79.38,158.79L148.56,0H0l106.45,199.69c5.22,9.23,10.03,17.55,14.45,24.97,4.4,7.42,8.81,14.74,13.23,21.95,4.4,7.21,8.42,14.53,12.02,21.95,3.61,7.42,7.22,15.94,10.82,25.56v127.52h141.95v-123.91c0-.8-.1-1.39-.31-1.8-.2-.39-.3-.8-.3-1.2,3.62-9.62,7.32-18.24,11.14-25.86,3.79-7.62,7.91-15.04,12.33-22.26,4.4-7.21,8.81-14.63,13.23-22.26,4.4-7.21,9.21-15.43,14.43-24.66L455.92,0h-148.57Z"/>
    <path class="cls-2" d="M792.51,161.41v-26.13c0-8.99-7.28-16.28-16.26-16.28h-169.12c-8.98,0-16.26,7.28-16.26,16.28v151.08c0,8.99,7.28,16.26,16.26,16.26h169.12c8.98,0,16.26-7.27,16.26-16.26v-26.15l107.89,41.35v120.08h-333.21c-12.04,0-23.17-1.9-33.38-5.72-10.23-3.79-19.05-9.21-26.47-16.23-7.42-7.01-13.33-15.24-17.73-24.66-4.42-9.42-6.62-19.75-6.62-30.98V77c0-11.23,2.2-21.56,6.62-30.98,4.4-9.42,10.31-17.55,17.73-24.36,7.42-6.83,16.24-12.13,26.47-15.95C544.02,1.92,555.15,0,567.19,0h333.21v119.17l-107.89,42.24Z"/>
    <path class="cls-2" d="M1345.74,119.01h-290.94c-10.27,0-18.6,8.33-18.6,18.6v146.41c0,10.27,8.33,18.6,18.6,18.6h290.94v119.01h-333.22c-12.03,0-23.16-1.9-33.39-5.72-10.23-3.8-19.05-9.22-26.47-16.24-7.42-7.01-13.33-15.23-17.73-24.67-4.42-9.42-6.63-19.74-6.63-30.96V76.98c0-11.22,2.21-21.55,6.63-30.96,4.4-9.42,10.31-17.54,17.73-24.36,7.42-6.82,16.24-12.13,26.47-15.95,10.23-3.8,21.35-5.72,33.39-5.72h333.22v119.01Z"/>
  </g>
</svg>